<svg xmlns="http://www.w3.org/2000/svg" viewBox="0 0 64 64" width="64" height="64">
  <title>Tinta logo concept 1a: Drop, two words</title>
  <style>
    :root{--ink:#1b1f24;--pink:#b8246a}
    @media (prefers-color-scheme:dark){:root{--ink:#c5ccd4;--pink:#ff5277}}
  </style>
  <path fill="var(--ink)" fill-rule="evenodd" d="M32 7C32 7 50 25 50 38A18 18 0 1 1 14 38C14 25 32 7 32 7ZM39.5 35.5h3a3.5 3.5 0 0 1 3.5 3.5v0a3.5 3.5 0 0 1 -3.5 3.5h-3a3.5 3.5 0 0 1 -3.5 -3.5v-0a3.5 3.5 0 0 1 3.5 -3.5z"/>
  <path fill="var(--pink)" d="M22.5 35.5h7a3.5 3.5 0 0 1 3.5 3.5v0a3.5 3.5 0 0 1 -3.5 3.5h-7a3.5 3.5 0 0 1 -3.5 -3.5v-0a3.5 3.5 0 0 1 3.5 -3.5z"/>
</svg>
