<svg xmlns="http://www.w3.org/2000/svg" viewBox="0 0 64 64" width="64" height="64">
  <title>Tinta logo concept 4a: The card</title>
  <style>
    :root{--ink:#1b1f24;--pink:#b8246a}
    @media (prefers-color-scheme:dark){:root{--ink:#c5ccd4;--pink:#ff5277}}
  </style>
  <path fill="var(--pink)" d="M16 19h17a4 4 0 0 1 4 4v4a4 4 0 0 1 -4 4h-17a4 4 0 0 1 -4 -4v-4a4 4 0 0 1 4 -4z"/>
  <path fill="var(--ink)" d="M15.5 36h33a3.5 3.5 0 0 1 3.5 3.5v2a3.5 3.5 0 0 1 -3.5 3.5h-33a3.5 3.5 0 0 1 -3.5 -3.5v-2a3.5 3.5 0 0 1 3.5 -3.5z"/>
</svg>
