<svg xmlns="http://www.w3.org/2000/svg" viewBox="0 0 64 64" width="512" height="512">
<defs><linearGradient id="g" x1="0" y1="0" x2="0" y2="1"><stop offset="0" stop-color="#1c2129"/><stop offset="1" stop-color="#101318"/></linearGradient></defs>
<path d="M58.00 32.00L57.98 40.73L57.91 43.51L57.80 45.52L57.64 47.14L57.44 48.51L57.19 49.71L56.89 50.76L56.55 51.70L56.15 52.55L55.70 53.32L55.20 54.01L54.63 54.63L54.01 55.20L53.32 55.70L52.55 56.15L51.70 56.55L50.76 56.89L49.71 57.19L48.51 57.44L47.14 57.64L45.52 57.80L43.51 57.91L40.73 57.98L32.00 58.00L23.27 57.98L20.49 57.91L18.48 57.80L16.86 57.64L15.49 57.44L14.29 57.19L13.24 56.89L12.30 56.55L11.45 56.15L10.68 55.70L9.99 55.20L9.37 54.63L8.80 54.01L8.30 53.32L7.85 52.55L7.45 51.70L7.11 50.76L6.81 49.71L6.56 48.51L6.36 47.14L6.20 45.52L6.09 43.51L6.02 40.73L6.00 32.00L6.02 23.27L6.09 20.49L6.20 18.48L6.36 16.86L6.56 15.49L6.81 14.29L7.11 13.24L7.45 12.30L7.85 11.45L8.30 10.68L8.80 9.99L9.37 9.37L9.99 8.80L10.68 8.30L11.45 7.85L12.30 7.45L13.24 7.11L14.29 6.81L15.49 6.56L16.86 6.36L18.48 6.20L20.49 6.09L23.27 6.02L32.00 6.00L40.73 6.02L43.51 6.09L45.52 6.20L47.14 6.36L48.51 6.56L49.71 6.81L50.76 7.11L51.70 7.45L52.55 7.85L53.32 8.30L54.01 8.80L54.63 9.37L55.20 9.99L55.70 10.68L56.15 11.45L56.55 12.30L56.89 13.24L57.19 14.29L57.44 15.49L57.64 16.86L57.80 18.48L57.91 20.49L57.98 23.27Z" fill="url(#g)"/><path d="M58.00 32.00L57.98 40.73L57.91 43.51L57.80 45.52L57.64 47.14L57.44 48.51L57.19 49.71L56.89 50.76L56.55 51.70L56.15 52.55L55.70 53.32L55.20 54.01L54.63 54.63L54.01 55.20L53.32 55.70L52.55 56.15L51.70 56.55L50.76 56.89L49.71 57.19L48.51 57.44L47.14 57.64L45.52 57.80L43.51 57.91L40.73 57.98L32.00 58.00L23.27 57.98L20.49 57.91L18.48 57.80L16.86 57.64L15.49 57.44L14.29 57.19L13.24 56.89L12.30 56.55L11.45 56.15L10.68 55.70L9.99 55.20L9.37 54.63L8.80 54.01L8.30 53.32L7.85 52.55L7.45 51.70L7.11 50.76L6.81 49.71L6.56 48.51L6.36 47.14L6.20 45.52L6.09 43.51L6.02 40.73L6.00 32.00L6.02 23.27L6.09 20.49L6.20 18.48L6.36 16.86L6.56 15.49L6.81 14.29L7.11 13.24L7.45 12.30L7.85 11.45L8.30 10.68L8.80 9.99L9.37 9.37L9.99 8.80L10.68 8.30L11.45 7.85L12.30 7.45L13.24 7.11L14.29 6.81L15.49 6.56L16.86 6.36L18.48 6.20L20.49 6.09L23.27 6.02L32.00 6.00L40.73 6.02L43.51 6.09L45.52 6.20L47.14 6.36L48.51 6.56L49.71 6.81L50.76 7.11L51.70 7.45L52.55 7.85L53.32 8.30L54.01 8.80L54.63 9.37L55.20 9.99L55.70 10.68L56.15 11.45L56.55 12.30L56.89 13.24L57.19 14.29L57.44 15.49L57.64 16.86L57.80 18.48L57.91 20.49L57.98 23.27Z" fill="none" stroke="#000" stroke-opacity="0.35" stroke-width="0.5"/><g transform="translate(32 32) scale(0.62) translate(-32 -32)"><path fill="#c5ccd4" fill-rule="evenodd" d="M31.3 6.9A1 1 0 0 1 32.7 6.9C34.8 11.8 51 26 51 38.5A19 19 0 1 1 13 38.5C13 26 29.2 11.8 31.3 6.9ZM40 35h3a4 4 0 0 1 4 4v0a4 4 0 0 1 -4 4h-3a4 4 0 0 1 -4 -4v-0a4 4 0 0 1 4 -4z"/><path fill="#ff5277" d="M21 35h8a4 4 0 0 1 4 4v0a4 4 0 0 1 -4 4h-8a4 4 0 0 1 -4 -4v-0a4 4 0 0 1 4 -4z"/></g>
</svg>
