<svg xmlns="http://www.w3.org/2000/svg" viewBox="0 0 213.9 137.0" width="428" height="274">
<title>Tinta Reader</title><style>:root{--ink:#1b1f24;--pink:#b8246a}@media (prefers-color-scheme:dark){:root{--ink:#c5ccd4;--pink:#ff5277}}</style><g transform="translate(5.50 78.80)">
  <path fill="var(--pink)" transform="scale(0.1)" d="M88.0 -421.0V-98.0C88.0 -27.0 109.0 3.0 192.0 3.0C231.0 3.0 276.0 -4.0 323.0 -19.0V-56.0C300.0 -51.0 277.0 -48.0 254.0 -48.0C184.0 -48.0 171.0 -81.0 171.0 -157.0V-421.0H323.0V-468.0H171.0V-574.0H134.0L91.0 -481.0L25.0 -452.0V-421.0ZM488.0 -708.0C456.0 -708.0 430.0 -683.0 430.0 -650.0C430.0 -618.0 456.0 -593.0 488.0 -593.0C520.0 -593.0 546.0 -618.0 546.0 -650.0C546.0 -682.0 520.0 -708.0 488.0 -708.0ZM484.0 -486.0 369.0 -450.0V-419.0H439.0V-57.0L422.0 -41.0L369.0 -36.0V0.0H594.0V-36.0L540.0 -41.0L522.0 -57.0V-486.0ZM644.0 0.0H863.0V-36.0L815.0 -41.0L798.0 -57.0V-392.0C841.0 -414.0 878.0 -425.0 910.0 -425.0C984.0 -425.0 1011.0 -395.0 1011.0 -322.0V-57.0L994.0 -41.0L946.0 -36.0V0.0H1165.0V-36.0L1111.0 -41.0L1094.0 -57.0V-339.0C1094.0 -439.0 1046.0 -491.0 959.0 -491.0C916.0 -491.0 865.0 -468.0 798.0 -431.0V-486.0H760.0L644.0 -450.0V-419.0H715.0V-57.0L698.0 -41.0L644.0 -36.0ZM1270.0 -421.0V-98.0C1270.0 -27.0 1291.0 3.0 1374.0 3.0C1413.0 3.0 1458.0 -4.0 1505.0 -19.0V-56.0C1482.0 -51.0 1459.0 -48.0 1436.0 -48.0C1366.0 -48.0 1353.0 -81.0 1353.0 -157.0V-421.0H1505.0V-468.0H1353.0V-574.0H1316.0L1273.0 -481.0L1207.0 -452.0V-421.0ZM1850.0 -58.0 1863.0 0.0H2004.0V-36.0L1951.0 -41.0L1933.0 -57.0V-347.0C1933.0 -448.0 1889.0 -491.0 1784.0 -491.0C1658.0 -491.0 1582.0 -439.0 1582.0 -378.0C1582.0 -354.0 1590.0 -347.0 1613.0 -347.0H1682.0V-431.0C1709.0 -442.0 1733.0 -447.0 1758.0 -447.0C1830.0 -447.0 1850.0 -414.0 1850.0 -335.0V-303.0C1650.0 -255.0 1558.0 -225.0 1558.0 -121.0C1558.0 -46.0 1607.0 7.0 1686.0 7.0C1734.0 7.0 1787.0 -15.0 1850.0 -58.0ZM1850.0 -92.0C1800.0 -63.0 1759.0 -47.0 1726.0 -47.0C1676.0 -47.0 1646.0 -80.0 1646.0 -129.0C1646.0 -202.0 1709.0 -229.0 1850.0 -268.0Z"/>
  <path fill="var(--ink)" transform="translate(0.00 49.60) scale(0.05)" d="M82.0 0.0V-486.0H150.0L157.0 -398.0H160.0Q184.0 -444.0 220.0 -471.0Q256.0 -498.0 298.0 -498.0Q314.0 -498.0 326.0 -496.0Q338.0 -494.0 350.0 -488.0L332.0 -418.0Q321.0 -421.0 311.5 -422.5Q302.0 -424.0 287.0 -424.0Q256.0 -424.0 222.5 -399.0Q189.0 -374.0 164.0 -312.0V0.0ZM626.0 12.0Q561.0 12.0 507.5 -18.5Q454.0 -49.0 423.0 -105.5Q392.0 -162.0 392.0 -243.0Q392.0 -322.0 424.0 -379.0Q456.0 -436.0 506.0 -467.0Q556.0 -498.0 612.0 -498.0Q674.0 -498.0 717.5 -469.5Q761.0 -441.0 783.0 -390.0Q805.0 -339.0 805.0 -270.0Q805.0 -257.0 804.5 -245.0Q804.0 -233.0 801.0 -221.0H451.0V-286.0H731.0Q731.0 -356.0 700.5 -393.5Q670.0 -431.0 613.0 -431.0Q580.0 -431.0 548.0 -412.5Q516.0 -394.0 495.5 -353.0Q475.0 -312.0 475.0 -244.0Q475.0 -182.0 496.5 -140.0Q518.0 -98.0 555.0 -76.5Q592.0 -55.0 636.0 -55.0Q671.0 -55.0 701.5 -65.0Q732.0 -75.0 757.0 -92.0L787.0 -38.0Q755.0 -16.0 715.5 -2.0Q676.0 12.0 626.0 12.0ZM1037.0 12.0Q997.0 12.0 964.5 -4.5Q932.0 -21.0 913.0 -51.5Q894.0 -82.0 894.0 -126.0Q894.0 -208.0 966.0 -250.0Q1038.0 -292.0 1194.0 -309.0Q1193.0 -339.0 1184.5 -367.0Q1176.0 -395.0 1154.0 -412.0Q1132.0 -429.0 1093.0 -429.0Q1051.0 -429.0 1014.0 -413.5Q977.0 -398.0 948.0 -379.0L916.0 -435.0Q938.0 -450.0 968.0 -464.5Q998.0 -479.0 1033.0 -488.5Q1068.0 -498.0 1107.0 -498.0Q1166.0 -498.0 1203.5 -473.5Q1241.0 -449.0 1258.5 -404.0Q1276.0 -359.0 1276.0 -298.0V0.0H1208.0L1201.0 -58.0H1198.0Q1163.0 -29.0 1123.0 -8.5Q1083.0 12.0 1037.0 12.0ZM1060.0 -56.0Q1096.0 -56.0 1127.5 -72.0Q1159.0 -88.0 1194.0 -119.0V-250.0Q1112.0 -240.0 1064.5 -224.5Q1017.0 -209.0 996.0 -186.0Q975.0 -163.0 975.0 -131.0Q975.0 -91.0 1000.0 -73.5Q1025.0 -56.0 1060.0 -56.0ZM1595.0 12.0Q1503.0 12.0 1448.5 -54.5Q1394.0 -121.0 1394.0 -242.0Q1394.0 -321.0 1423.5 -378.5Q1453.0 -436.0 1501.0 -467.0Q1549.0 -498.0 1605.0 -498.0Q1648.0 -498.0 1678.5 -483.5Q1709.0 -469.0 1741.0 -442.0L1737.0 -525.0V-712.0H1820.0V0.0H1752.0L1745.0 -57.0H1742.0Q1714.0 -29.0 1676.0 -8.5Q1638.0 12.0 1595.0 12.0ZM1613.0 -57.0Q1647.0 -57.0 1677.0 -74.0Q1707.0 -91.0 1737.0 -124.0V-378.0Q1707.0 -406.0 1678.0 -417.5Q1649.0 -429.0 1619.0 -429.0Q1580.0 -429.0 1548.5 -405.5Q1517.0 -382.0 1498.0 -340.5Q1479.0 -299.0 1479.0 -243.0Q1479.0 -156.0 1514.0 -106.5Q1549.0 -57.0 1613.0 -57.0ZM2181.0 12.0Q2116.0 12.0 2062.5 -18.5Q2009.0 -49.0 1978.0 -105.5Q1947.0 -162.0 1947.0 -243.0Q1947.0 -322.0 1979.0 -379.0Q2011.0 -436.0 2061.0 -467.0Q2111.0 -498.0 2167.0 -498.0Q2229.0 -498.0 2272.5 -469.5Q2316.0 -441.0 2338.0 -390.0Q2360.0 -339.0 2360.0 -270.0Q2360.0 -257.0 2359.5 -245.0Q2359.0 -233.0 2356.0 -221.0H2006.0V-286.0H2286.0Q2286.0 -356.0 2255.5 -393.5Q2225.0 -431.0 2168.0 -431.0Q2135.0 -431.0 2103.0 -412.5Q2071.0 -394.0 2050.5 -353.0Q2030.0 -312.0 2030.0 -244.0Q2030.0 -182.0 2051.5 -140.0Q2073.0 -98.0 2110.0 -76.5Q2147.0 -55.0 2191.0 -55.0Q2226.0 -55.0 2256.5 -65.0Q2287.0 -75.0 2312.0 -92.0L2342.0 -38.0Q2310.0 -16.0 2270.5 -2.0Q2231.0 12.0 2181.0 12.0ZM2480.0 0.0V-486.0H2548.0L2555.0 -398.0H2558.0Q2582.0 -444.0 2618.0 -471.0Q2654.0 -498.0 2696.0 -498.0Q2712.0 -498.0 2724.0 -496.0Q2736.0 -494.0 2748.0 -488.0L2730.0 -418.0Q2719.0 -421.0 2709.5 -422.5Q2700.0 -424.0 2685.0 -424.0Q2654.0 -424.0 2620.5 -399.0Q2587.0 -374.0 2562.0 -312.0V0.0Z"/>
</g>
</svg>
